<?xml version="1.0" encoding="UTF-8"?>
<svg width="900px" height="150px" viewBox="0 0 900 150" version="1.1" xmlns="http://www.w3.org/2000/svg" xmlns:xlink="http://www.w3.org/1999/xlink">
    <title>FATHOM Copy</title>
    <defs>
        <linearGradient x1="100%" y1="51.2585359%" x2="0%" y2="48.7434172%" id="linearGradient-1">
            <stop stop-color="#529EE6" offset="0%"></stop>
            <stop stop-color="#BD74E5" offset="100%"></stop>
        </linearGradient>
    </defs>
    <g id="Page-1" stroke="none" stroke-width="1" fill="none" fill-rule="evenodd">
        <path d="M8.15560641,150 C5.58808785,150 3.5869637,149.285721 2.15217391,147.857143 C0.71738413,146.428564 0,144.436103 0,141.879699 L0,8.12030075 C0,5.56389699 0.71738413,3.57143571 2.15217391,2.14285714 C3.5869637,0.714278571 5.58808785,0 8.15560641,0 L90.8443936,0 C93.4119122,0 95.4130363,0.714278571 96.8478261,2.14285714 C98.2826159,3.57143571 99,5.56389699 99,8.12030075 C99,10.6767045 98.2826159,12.6691658 96.8478261,14.0977444 C95.4130363,15.5263229 93.4119122,16.2406015 90.8443936,16.2406015 L16.3112128,16.2406015 L16.3112128,66.0902256 L64.1121281,66.0902256 C66.6796467,66.0902256 68.6807709,66.8045041 70.1155606,68.2330827 C71.5503504,69.6616613 72.2677346,71.6541226 72.2677346,74.2105263 C72.2677346,76.7669301 71.5503504,78.7593914 70.1155606,80.1879699 C68.6807709,81.6165485 66.6796467,82.3308271 64.1121281,82.3308271 L16.3112128,82.3308271 L16.3112128,141.879699 C16.3112128,144.436103 15.5938287,146.428564 14.1590389,147.857143 C12.7242491,149.285721 10.723125,150 8.15560641,150 Z M232.101045,138.496241 C232.700351,139.699254 233,140.977437 233,142.330827 C233,145.488738 231.277021,147.744354 227.83101,149.097744 C226.482572,149.699251 225.134153,150 223.785714,150 C220.789184,150 218.616731,148.270694 217.268293,144.81203 L204.008711,113.007519 L132.766551,113.007519 L119.956446,144.81203 C118.608007,148.270694 116.360643,150 113.214286,150 C111.865847,150 110.59234,149.699251 109.393728,149.097744 C105.797891,147.744354 104,145.488738 104,142.330827 C104,140.977437 104.299649,139.699254 104.898955,138.496241 L159.060976,6.31578947 C160.858894,2.10524211 163.930292,0 168.275261,0 L168.724739,0 C172.770055,0 175.691629,2.10524211 177.489547,6.31578947 L232.101045,138.496241 Z M139,97 L197,97 L167.550388,26 L139,97 Z M304.5,150 C301.946874,150 299.956967,149.285721 298.53022,147.857143 C297.103473,146.428564 296.39011,144.436103 296.39011,141.879699 L296.39011,16.2406015 L251.10989,16.2406015 C248.556764,16.2406015 246.566857,15.5263229 245.14011,14.0977444 C243.713363,12.6691658 243,10.6767045 243,8.12030075 C243,5.56389699 243.713363,3.57143571 245.14011,2.14285714 C246.566857,0.714278571 248.556764,0 251.10989,0 L357.89011,0 C360.443236,0 362.433143,0.714278571 363.85989,2.14285714 C365.286637,3.57143571 366,5.56389699 366,8.12030075 C366,10.6767045 365.286637,12.6691658 363.85989,14.0977444 C362.433143,15.5263229 360.443236,16.2406015 357.89011,16.2406015 L312.60989,16.2406015 L312.60989,141.879699 C312.60989,144.436103 311.896527,146.428564 310.46978,147.857143 C309.043033,149.285721 307.053126,150 304.5,150 Z M416.093525,150 C413.845312,150 411.93436,149.210534 410.360612,147.631579 C408.786863,146.052624 408,144.13535 408,141.879699 L408,8.12030075 C408,5.86465038 408.786863,3.94737632 410.360612,2.36842105 C411.93436,0.789465789 413.845312,0 416.093525,0 C418.341738,0 420.25269,0.789465789 421.826439,2.36842105 C423.400188,3.94737632 424.18705,5.86465038 424.18705,8.12030075 L424.18705,65.8646617 L516.81295,65.8646617 L516.81295,8.12030075 C516.81295,5.86465038 517.599812,3.94737632 519.173561,2.36842105 C520.74731,0.789465789 522.658262,0 524.906475,0 C527.154688,0 529.06564,0.789465789 530.639388,2.36842105 C532.213137,3.94737632 533,5.86465038 533,8.12030075 L533,141.879699 C533,144.13535 532.213137,146.052624 530.639388,147.631579 C529.06564,149.210534 527.154688,150 524.906475,150 C522.658262,150 520.74731,149.210534 519.173561,147.631579 C517.599812,146.052624 516.81295,144.13535 516.81295,141.879699 L516.81295,82.1052632 L424.18705,82.1052632 L424.18705,141.879699 C424.18705,144.13535 423.400188,146.052624 421.826439,147.631579 C420.25269,149.210534 418.341738,150 416.093525,150 Z M637.010791,150 C620.224137,150 607.859152,146.015189 599.915468,138.045449 C591.971783,130.075708 588,117.670166 588,100.82845 L588,48.9502087 C588,31.9581202 591.971783,19.5149854 599.915468,11.620431 C607.859152,3.72587654 620.224137,-0.146156354 637.010791,0.00421611054 L663.989209,0.00421611054 C680.925744,0.00421611054 693.328198,3.95143411 701.196942,11.8459885 C709.065687,19.7405429 713,32.1836778 713,49.1757663 L713,100.82845 C713,117.670166 709.065687,130.075708 701.196942,138.045449 C693.328198,146.015189 680.925744,150 663.989209,150 L637.010791,150 Z M664.043689,134 C672.470916,134 679.054588,132.980951 683.794903,130.942823 C688.535218,128.904695 691.921106,125.507866 693.95267,120.752234 C695.984233,115.996601 697,109.391656 697,100.937198 L697,49.0784199 C697,40.6239625 695.984233,34.0190168 693.95267,29.2633845 C691.921106,24.5077523 688.535218,21.110923 683.794903,19.0727949 C679.054588,17.0346668 672.470916,16.015618 664.043689,16.015618 L636.956311,16.015618 C628.529084,15.8646456 621.945412,16.8082093 617.205097,18.8463374 C612.464782,20.8844655 609.078894,24.2812947 607.04733,29.036927 C605.015767,33.7925592 604,40.397505 604,48.8519623 L604,100.937198 C604,109.391656 605.015767,115.996601 607.04733,120.752234 C609.078894,125.507866 612.464782,128.904695 617.205097,130.942823 C621.945412,132.980951 628.529084,134 636.956311,134 L664.043689,134 Z M893.241491,0 C897.747186,0 900,2.70673985 900,8.12030075 L900,141.879699 C900,144.436103 899.286609,146.428564 897.859806,147.857143 C896.433002,149.285721 894.443017,150 891.889789,150 C889.336562,150 887.346577,149.285721 885.919773,147.857143 C884.49297,146.428564 883.779579,144.436103 883.779579,141.879699 L883.779579,33.6090226 L839.623987,99.4736842 C837.22095,102.932348 833.916823,104.661654 829.711507,104.661654 C826.707711,104.661654 824.004334,102.932348 821.601297,99.4736842 L777.220421,33.1578947 L777.220421,141.879699 C777.220421,144.436103 776.50703,146.428564 775.080227,147.857143 C773.653423,149.285721 771.663438,150 769.110211,150 C766.556983,150 764.566998,149.285721 763.140194,147.857143 C761.713391,146.428564 761,144.436103 761,141.879699 L761,8.12030075 C761,5.56389699 761.713391,3.57143571 763.140194,2.14285714 C764.566998,0.714278571 766.556983,0 769.110211,0 C772.714767,0 775.718519,1.72930602 778.121556,5.18796992 L830.837925,85.037594 L883.329011,5.18796992 C885.732049,1.72930602 889.036176,0 893.241491,0 Z" id="FATHOM-Copy" fill="url(#linearGradient-1)"></path>
    </g>
</svg>