<?xml version="1.0" encoding="UTF-8"?>
<svg width="100%" height="100%" viewBox="0 0 100 100" version="1.1" xmlns="http://www.w3.org/2000/svg" xmlns:xlink="http://www.w3.org/1999/xlink">
    <!-- Generator: Sketch 61.2 (89653) - https://sketch.com -->
    <title>Group 6</title>
    <desc>Created with Sketch.</desc>
    <defs>
        <polygon id="path-1" points="0 183 183 183 183 0 0 0"></polygon>
        <polygon id="path-3" points="0 135.42 175.68 135.42 175.68 0 0 0"></polygon>
    </defs>
    <g id="Page-1" stroke="none" stroke-width="1" fill="none" fill-rule="evenodd">
        <g id="Automation" transform="translate(-135.000000, -124.000000)">
            <g id="Group-6" transform="translate(135.226000, 124.664000)">
                <g id="Group-2" transform="translate(507.774000, 483.336000)" stroke="#293240" stroke-width="4">
                    <rect id="Rectangle" x="46" y="7" width="57" height="68" rx="28.5"></rect>
                    <path d="M2,164 L149,164 L149,138 C149,111.490332 127.509668,90 101,90 L50,90 C23.490332,90 2,111.490332 2,138 L2,164 Z" id="Rectangle-Copy"></path>
                    <rect id="Rectangle-Copy" x="36" y="114" width="79" height="50"></rect>
                    <rect id="Rectangle-Copy" x="65" y="128" width="22" height="22" rx="11"></rect>
                    <line x1="111.454545" y1="0.5" x2="121" y2="1" id="Line" stroke-linecap="square"></line>
                    <line x1="117" y1="73.5" x2="122" y2="73.5" id="Line-Copy-4" stroke-linecap="square"></line>
                    <line x1="136.340909" y1="73.5" x2="165.431818" y2="73.5" id="Line-Copy-5" stroke-linecap="square"></line>
                    <line x1="122" y1="18" x2="139" y2="18" id="Line-Copy-2" stroke-linecap="square"></line>
                    <line x1="130" y1="54" x2="153" y2="54" id="Line-Copy-9" stroke-linecap="square"></line>
                    <line x1="125" y1="36" x2="129" y2="36" id="Line-Copy-7" stroke-linecap="square"></line>
                    <line x1="143" y1="36" x2="166" y2="36" id="Line-Copy-8" stroke-linecap="square"></line>
                    <line x1="132.472222" y1="0.5" x2="165.527778" y2="1" id="Line-Copy" stroke-linecap="square"></line>
                    <line x1="152.466667" y1="18" x2="165.533333" y2="18" id="Line-Copy-3" stroke-linecap="square"></line>
                </g>
                <g id="Group-5" transform="translate(490.774000, 53.336000)">
                    <g id="Group-53">
                        <path d="M48.9525,37.0575 L41.6325,37.0575 C36.6,37.0575 32.4825,41.175 32.4825,46.2075 L32.4825,85.5525 C32.4825,90.585 36.6,94.7025 41.6325,94.7025 L48.9525,94.7025 L48.9525,91.0425 L41.6325,91.0425 C39.0705,91.0425 36.1425,88.1145 36.1425,85.5525 L36.1425,46.2075 C36.1425,43.6455 39.0705,40.7175 41.6325,40.7175 L48.9525,40.7175 L48.9525,37.0575 Z" id="Fill-1" fill="#9A76CF"></path>
                        <polygon id="Fill-39" fill="#9A76CF" points="106.5975 159.6675 110.2575 159.6675 110.2575 177.7845 106.5975 178.791"></polygon>
                        <mask id="mask-2" fill="white">
                            <use xlink:href="#path-1"></use>
                        </mask>
                        <g id="Clip-42"></g>
                        <g id="Group-20" mask="url(#mask-2)">
                            <g transform="translate(184.830000, -173.850000)">
                                <polygon id="Fill-1" fill="#9A76CF" points="0 135.42 175.68 135.42 175.68 0 0 0"></polygon>
                                <polygon id="Fill-2" fill="#9A76CF" points="3.66 131.76 172.02 131.76 172.02 21.96 3.66 21.96"></polygon>
                                <g id="Group-19" stroke-width="1" fill="none">
                                    <mask id="mask-4" fill="white">
                                        <use xlink:href="#path-3"></use>
                                    </mask>
                                    <g id="Clip-11"></g>
                                    <polygon id="Fill-13" fill="#9A76CF" mask="url(#mask-4)" points="28.365 56.73 147.315 56.73 147.315 119.865 112.545 119.865 112.545 107.97 28.365 107.97"></polygon>
                                </g>
                            </g>
                        </g>
                        <polygon id="Fill-41" fill="#9A76CF" mask="url(#mask-2)" points="144.1125 120.3225 147.7725 120.3225 147.7725 88.2975 144.1125 88.2975"></polygon>
                        <path d="M101.1075,33.3975 L101.1075,38.8875 C101.1075,41.4495 104.9505,45.2925 107.5125,45.2925 L118.4925,45.2925 L118.4925,41.6325 L109.3425,41.6325 C106.9635,41.724 104.859,39.894 104.7675,37.4235 L104.7675,37.0575 L104.7675,33.3975 L101.1075,33.3975 Z" id="Fill-43" fill="#9A76CF" mask="url(#mask-2)"></path>
                        <path d="M131.3025,77.3175 L131.3025,48.0375 C131.3025,45.4755 127.4595,41.6325 124.8975,41.6325 L118.4925,41.6325 L118.4925,45.2925 L123.0675,45.2925 C125.4465,45.201 127.551,47.031 127.6425,49.5015 L127.6425,49.8675 L127.6425,77.3175 L131.3025,77.3175 Z" id="Fill-44" fill="#9A76CF" mask="url(#mask-2)"></path>
                        <path d="M127.6425,77.3175 L127.6425,81.8925 C127.6425,84.4545 131.4855,88.2975 134.0475,88.2975 L182.5425,88.2975 L182.451,84.6375 L135.8775,84.6375 C133.4985,84.729 131.394,82.899 131.3025,80.4285 L131.3025,80.0625 L131.3025,77.3175 L127.6425,77.3175 Z" id="Fill-45" fill="#9A76CF" mask="url(#mask-2)"></path>
                        <path d="M81.8925,69.9975 L81.8925,84.6375 C81.8925,87.1995 85.7355,91.0425 88.2975,91.0425 L111.1725,91.0425 L111.1725,87.3825 L90.1275,87.3825 C87.7485,87.474 85.644,85.644 85.5525,83.1735 L85.5525,82.8075 L85.5525,69.9975 L81.8925,69.9975 Z" id="Fill-46" fill="#9A76CF" mask="url(#mask-2)"></path>
                        <path d="M123.9825,112.0875 L123.9825,93.7875 C123.9825,91.2255 120.1395,87.3825 117.5775,87.3825 L111.1725,87.3825 L111.1725,91.0425 L115.7475,91.0425 C118.1265,90.951 120.231,92.781 120.3225,95.2515 L120.3225,95.6175 L120.3225,112.0875 L123.9825,112.0875 Z" id="Fill-47" fill="#9A76CF" mask="url(#mask-2)"></path>
                        <path d="M51.6975,113.0025 L93.7875,113.0025 C96.3495,113.0025 100.1925,109.1595 100.1925,106.5975 L100.1925,91.0425 L96.5325,91.0425 L96.5325,104.7675 C96.624,107.1465 94.794,109.251 92.3235,109.3425 L91.9575,109.3425 L51.6975,109.3425 L51.6975,113.0025 Z" id="Fill-48" fill="#9A76CF" mask="url(#mask-2)"></path>
                        <path d="M51.6975,109.3425 L47.1225,109.3425 C44.5605,109.3425 40.7175,113.1855 40.7175,115.7475 L40.7175,126.7275 L44.3775,126.7275 L44.3775,117.5775 C44.286,115.1985 46.116,113.094 48.5865,113.0025 L48.9525,113.0025 L51.6975,113.0025 L51.6975,109.3425 Z" id="Fill-49" fill="#9A76CF" mask="url(#mask-2)"></path>
                        <polygon id="Fill-50" fill="#9A76CF" mask="url(#mask-2)" points="76.4025 123.9825 80.0625 123.9825 80.0625 113.0025 76.4025 113.0025"></polygon>
                        <path d="M91.5,2.2875 C140.77092,2.2875 180.7125,42.22908 180.7125,91.5 C180.7125,140.77092 140.77092,180.7125 91.5,180.7125 C42.22908,180.7125 2.2875,140.77092 2.2875,91.5 C2.2875,42.22908 42.22908,2.2875 91.5,2.2875 Z" id="Stroke-51" stroke="#9A76CF" stroke-width="5" mask="url(#mask-2)"></path>
                        <polygon id="Fill-52" fill="#9A76CF" mask="url(#mask-2)" points="7.686 69.8145 32.94 69.8145 32.94 66.1545 7.686 66.1545"></polygon>
                    </g>
                    <rect id="Rectangle" stroke="#9A76D0" stroke-width="4" x="51" y="32" width="13" height="13" rx="4"></rect>
                    <rect id="Rectangle" stroke="#9A76D0" stroke-width="4" x="96" y="20" width="13" height="13" rx="4"></rect>
                    <rect id="Rectangle" stroke="#9A76D0" stroke-width="4" x="116" y="112" width="13" height="13" rx="4"></rect>
                    <rect id="Rectangle" stroke="#9A76D0" stroke-width="4" x="139" y="121" width="13" height="13" rx="4"></rect>
                    <rect id="Rectangle" stroke="#9A76D0" stroke-width="4" x="36" y="128" width="13" height="13" rx="4"></rect>
                    <rect id="Rectangle-Copy-3" stroke="#9A76D0" stroke-width="4" x="72" y="125" width="13" height="13" rx="4"></rect>
                    <rect id="Rectangle-Copy-3" stroke="#9A76D0" stroke-width="4" x="102" y="145" width="13" height="13" rx="4"></rect>
                    <rect id="Rectangle-Copy-2" stroke="#9A76D0" stroke-width="4" x="51" y="86" width="13" height="13" rx="4"></rect>
                    <rect id="Rectangle-Copy-2" stroke="#9A76D0" stroke-width="4" x="77" y="56" width="13" height="13" rx="4"></rect>
                </g>
                <g id="Group-3" transform="translate(23.774000, 66.336000)" stroke="#293240" stroke-width="4">
                    <rect id="Rectangle" x="2" y="2" width="120" height="153"></rect>
                    <path d="M27,2 L27,10 C27,14.418278 30.581722,18 35,18 L88,18 C92.418278,18 96,14.418278 96,10 L96,2 L27,2 Z" id="Rectangle"></path>
                    <line x1="21.3616071" y1="42" x2="101.638393" y2="42" id="Line-2" stroke-linecap="square"></line>
                    <line x1="21.3616071" y1="76" x2="101.638393" y2="76" id="Line-2-Copy-2" stroke-linecap="square"></line>
                    <line x1="21.3616071" y1="126" x2="101.638393" y2="126" id="Line-2-Copy-4" stroke-linecap="square"></line>
                    <line x1="21.3616071" y1="58.5" x2="101.638393" y2="58.5" id="Line-2-Copy" stroke-linecap="square"></line>
                    <line x1="21.3616071" y1="109.5" x2="101.638393" y2="109.5" id="Line-2-Copy-5" stroke-linecap="square"></line>
                    <line x1="21.3616071" y1="93.5" x2="101.638393" y2="93.5" id="Line-2-Copy-3" stroke-linecap="square"></line>
                </g>
                <g id="Group-4" transform="translate(1008.774000, 71.336000)" stroke="#293240" stroke-width="4">
                    <rect id="Rectangle-Copy-4" x="17" y="62" width="130" height="53"></rect>
                    <rect id="Rectangle-Copy-4" x="119" y="63" width="28" height="66"></rect>
                    <rect id="Rectangle" x="2" y="2" width="162" height="144"></rect>
                    <line x1="16.3620463" y1="35.5" x2="66.5259807" y2="35.5" id="Line-2-Copy-6" stroke-linecap="square"></line>
                    <line x1="16.3620463" y1="48.5" x2="66.5259807" y2="48.5" id="Line-2-Copy-7" stroke-linecap="square"></line>
                    <line x1="17.3599258" y1="74.5" x2="144.528757" y2="74.5" id="Line-2-Copy-8" stroke-linecap="square"></line>
                    <line x1="4.360497" y1="21.5" x2="162.52801" y2="21.5" id="Line-2" stroke-linecap="square"></line>
                    <circle id="Oval" fill="#9A76CF" cx="14" cy="12" r="2"></circle>
                    <circle id="Oval" fill="#9A76CF" cx="27" cy="12" r="2"></circle>
                </g>
                <g id="Group-7" transform="translate(187.774000, 137.336000)">
                    <circle id="Oval" stroke="#293240" stroke-width="4" cx="8" cy="9" r="6"></circle>
                    <line x1="17" y1="9" x2="238" y2="9" id="Line-3" stroke="#293240" stroke-width="4" stroke-linecap="square"></line>
                    <polygon id="Rectangle" fill="#293240" transform="translate(245.246211, 9.000000) scale(-1, 1) rotate(90.000000) translate(-245.246211, -9.000000) " points="237 0 253.492422 0 245.340182 18"></polygon>
                </g>
                <g id="Group-7" transform="translate(749.774000, 136.336000)">
                    <line x1="0" y1="9" x2="202" y2="9" id="Line-3" stroke="#9A76CF" stroke-width="4" stroke-linecap="square"></line>
                    <polygon id="Rectangle" fill="#9A76CF" transform="translate(209.246211, 9.000000) scale(-1, 1) rotate(90.000000) translate(-209.246211, -9.000000) " points="201 0 217.492422 0 209.340182 18"></polygon>
                </g>
                <circle id="Oval-Copy" stroke="#9A76CF" stroke-width="4" transform="translate(727.274000, 145.836000) rotate(90.000000) translate(-727.274000, -145.836000) " cx="727.274" cy="145.836" r="21.5"></circle>
                <g id="Group-7-Copy" transform="translate(749.774000, 565.336000)" stroke="#293240" stroke-linecap="square" stroke-width="4">
                    <line x1="0" y1="1" x2="342" y2="1" id="Line-3"></line>
                </g>
                <g id="Group" transform="translate(558.774000, 256.336000)">
                    <circle id="Oval" stroke="#9A76CF" stroke-width="4" transform="translate(23.500000, 23.500000) rotate(90.000000) translate(-23.500000, -23.500000) " cx="23.5" cy="23.5" r="21.5"></circle>
                    <line x1="-42" y1="113.5" x2="88" y2="113.5" id="Line-3" stroke="#9A76CF" stroke-width="4" stroke-linecap="square" transform="translate(23.000000, 113.500000) rotate(90.000000) translate(-23.000000, -113.500000) "></line>
                    <polygon id="Rectangle" fill="#9A76CF" transform="translate(23.246211, 180.000000) scale(-1, -1) rotate(180.000000) translate(-23.246211, -180.000000) " points="15 171 31.4924217 171 23.3401819 189"></polygon>
                </g>
                <polygon id="Rectangle" fill="#293240" transform="translate(1092.020211, 271.336000) scale(-1, -1) translate(-1092.020211, -271.336000) " points="1083.774 262.336 1100.26642 262.336 1092.11418 280.336"></polygon>
                <line x1="950.274" y1="423.336" x2="1235.524" y2="423.086" id="Line-3" stroke="#293240" stroke-width="4" stroke-linecap="square" transform="translate(1093.024000, 423.586000) rotate(-90.000000) translate(-1093.024000, -423.586000) "></line>
                <polygon id="Path" fill="#7756A8" fill-rule="nonzero" points="735.857426 138.336 734.482136 139.778421 724.899107 149.831858 722.023865 146.988548 720.607243 145.587659 717.774 148.389437 719.190622 149.790326 723.523817 154.075397 724.982438 155.517818 726.39906 154.034524 737.39871 142.497793 738.774 141.055372"></polygon>
                <circle id="Oval-Copy" stroke="#17202D" stroke-width="4" transform="translate(727.274000, 565.836000) rotate(90.000000) translate(-727.274000, -565.836000) " cx="727.274" cy="565.836" r="21.5"></circle>
                <polygon id="Path" fill="#17202D" fill-rule="nonzero" points="735.857426 558.336 734.482136 559.778421 724.899107 569.831858 722.023865 566.988548 720.607243 565.587659 717.774 568.389437 719.190622 569.790326 723.523817 574.075397 724.982438 575.517818 726.39906 574.034524 737.39871 562.497793 738.774 561.055372"></polygon>
                <polygon id="Path" fill="#7756A8" fill-rule="nonzero" points="577.493276 272.336 574.774 275.055276 576.148936 276.399616 579.585321 279.836 576.148936 283.272384 574.774 284.616724 577.493276 287.336 578.837616 285.961064 582.274 282.524679 585.710384 285.961064 587.054724 287.336 589.774 284.616724 588.399064 283.272384 584.962679 279.836 588.399064 276.399616 589.774 275.055276 587.054724 272.336 585.710384 273.710936 582.274 277.147321 578.837616 273.710936"></polygon>
                <path d="M521.486,21.336 L521.486,19.656 L518.826,19.656 L518.826,12.46 L523.082,12.46 L523.082,14.308 L525.014,14.308 L525.014,8.792 L523.082,8.792 L523.082,10.64 L518.826,10.64 L518.826,3.612 L525.294,3.612 L525.294,6.86 L528.178,6.86 L528.178,1.792 L512.918,1.792 L512.918,3.472 L514.906,3.472 L514.906,19.656 L512.918,19.656 L512.918,21.336 L521.486,21.336 Z M541.73,21.672 C542.215333,21.672 542.691333,21.6206667 543.158,21.518 C543.624667,21.4153333 543.998,21.2706667 544.278,21.084 L544.278,21.084 L544.278,19.684 L542.486,19.684 L542.486,11.228 C542.486,9.69733333 542.019333,8.50733333 541.086,7.658 C540.152667,6.80866667 538.752667,6.384 536.886,6.384 C535.915333,6.384 535.061333,6.482 534.324,6.678 C533.586667,6.874 532.966,7.13533333 532.462,7.462 C531.958,7.78866667 531.58,8.162 531.328,8.582 C531.076,9.002 530.95,9.436 530.95,9.884 C530.95,10.4626667 531.122667,10.9293333 531.468,11.284 C531.813333,11.6386667 532.256667,11.816 532.798,11.816 C533.432667,11.816 533.913333,11.6433333 534.24,11.298 C534.566667,10.9526667 534.73,10.5093333 534.73,9.968 C534.73,9.55733333 534.641333,9.23533333 534.464,9.002 C534.286667,8.76866667 534.104667,8.596 533.918,8.484 L533.918,8.484 L533.918,8.372 C534.366,8.12933333 535.000667,8.008 535.822,8.008 C536.886,8.008 537.651333,8.302 538.118,8.89 C538.584667,9.478 538.818,10.3413333 538.818,11.48 L538.818,11.48 L538.818,13.244 L536.83,13.244 C534.627333,13.244 533.008,13.608 531.972,14.336 C530.936,15.064 530.418,16.1373333 530.418,17.556 C530.418,18.844 530.782,19.852 531.51,20.58 C532.238,21.308 533.358,21.672 534.87,21.672 C535.504667,21.672 536.050667,21.5973333 536.508,21.448 C536.965333,21.2986667 537.352667,21.1073333 537.67,20.874 C537.987333,20.6406667 538.248667,20.3746667 538.454,20.076 C538.659333,19.7773333 538.827333,19.4693333 538.958,19.152 L538.958,19.152 L539.098,19.152 L539.098,19.236 C539.098,19.9453333 539.303333,20.5286667 539.714,20.986 C540.124667,21.4433333 540.796667,21.672 541.73,21.672 Z M536.298,19.432 C535.644667,19.432 535.117333,19.2826667 534.716,18.984 C534.314667,18.6853333 534.114,18.2186667 534.114,17.584 L534.114,17.584 L534.114,17.08 C534.114,16.3333333 534.352,15.7593333 534.828,15.358 C535.304,14.9566667 536.102,14.756 537.222,14.756 L537.222,14.756 L538.818,14.756 L538.818,17.108 C538.818,17.948 538.584667,18.5453333 538.118,18.9 C537.651333,19.2546667 537.044667,19.432 536.298,19.432 Z M550.858,21.588 C551.735333,21.588 552.538,21.532 553.266,21.42 C553.994,21.308 554.507333,21.1773333 554.806,21.028 L554.806,21.028 L554.806,19.6 L551.446,19.6 L551.446,8.512 L554.806,8.512 L554.806,6.72 L551.446,6.72 L551.446,2.772 L549.598,2.772 L548.59,5.208 C548.384667,5.712 548.142,6.09 547.862,6.342 C547.582,6.594 547.115333,6.72 546.462,6.72 L546.462,6.72 L545.846,6.72 L545.846,8.512 L547.778,8.512 L547.778,18.732 C547.778,19.7026667 548.016,20.4213333 548.492,20.888 C548.968,21.3546667 549.756667,21.588 550.858,21.588 Z M563.346,21.336 L563.346,19.656 L561.638,19.656 L561.638,11.228 C561.638,10.8173333 561.722,10.4626667 561.89,10.164 C562.058,9.86533333 562.277333,9.618 562.548,9.422 C562.818667,9.226 563.122,9.08133333 563.458,8.988 C563.794,8.89466667 564.139333,8.848 564.494,8.848 C565.408667,8.848 566.071333,9.09533333 566.482,9.59 C566.892667,10.0846667 567.098,10.8826667 567.098,11.984 L567.098,11.984 L567.098,19.656 L565.39,19.656 L565.39,21.336 L572.558,21.336 L572.558,19.656 L570.766,19.656 L570.766,11.816 C570.766,10.0053333 570.392667,8.64733333 569.646,7.742 C568.899333,6.83666667 567.639333,6.384 565.866,6.384 C565.306,6.384 564.802,6.45866667 564.354,6.608 C563.906,6.75733333 563.514,6.958 563.178,7.21 C562.842,7.462 562.557333,7.75133333 562.324,8.078 C562.090667,8.40466667 561.908667,8.74533333 561.778,9.1 L561.778,9.1 L561.638,9.1 L561.638,0.056 L556.178,1.176 L556.178,2.576 L557.97,2.94 L557.97,19.656 L556.178,19.656 L556.178,21.336 L563.346,21.336 Z M581.434,21.672 C582.479333,21.672 583.426667,21.4993333 584.276,21.154 C585.125333,20.8086667 585.853333,20.3046667 586.46,19.642 C587.066667,18.9793333 587.538,18.1766667 587.874,17.234 C588.21,16.2913333 588.378,15.2226667 588.378,14.028 C588.378,12.8333333 588.21,11.7646667 587.874,10.822 C587.538,9.87933333 587.066667,9.07666667 586.46,8.414 C585.853333,7.75133333 585.125333,7.24733333 584.276,6.902 C583.426667,6.55666667 582.479333,6.384 581.434,6.384 C580.388667,6.384 579.441333,6.55666667 578.592,6.902 C577.742667,7.24733333 577.014667,7.75133333 576.408,8.414 C575.801333,9.07666667 575.33,9.87933333 574.994,10.822 C574.658,11.7646667 574.49,12.8333333 574.49,14.028 C574.49,15.2226667 574.658,16.2913333 574.994,17.234 C575.33,18.1766667 575.801333,18.9793333 576.408,19.642 C577.014667,20.3046667 577.742667,20.8086667 578.592,21.154 C579.441333,21.4993333 580.388667,21.672 581.434,21.672 Z M581.434,19.824 C580.426,19.824 579.674667,19.516 579.18,18.9 C578.685333,18.284 578.438,17.416 578.438,16.296 L578.438,16.296 L578.438,11.76 C578.438,10.64 578.685333,9.772 579.18,9.156 C579.674667,8.54 580.426,8.232 581.434,8.232 C582.442,8.232 583.193333,8.54 583.688,9.156 C584.182667,9.772 584.43,10.64 584.43,11.76 L584.43,11.76 L584.43,16.296 C584.43,17.416 584.182667,18.284 583.688,18.9 C583.193333,19.516 582.442,19.824 581.434,19.824 Z M597.73,21.336 L597.73,19.656 L596.106,19.656 L596.106,11.256 C596.106,10.8453333 596.185333,10.486 596.344,10.178 C596.502667,9.87 596.708,9.618 596.96,9.422 C597.212,9.226 597.506,9.08133333 597.842,8.988 C598.178,8.89466667 598.523333,8.848 598.878,8.848 C599.755333,8.848 600.385333,9.09533333 600.768,9.59 C601.150667,10.0846667 601.342,10.8826667 601.342,11.984 L601.342,11.984 L601.342,19.656 L599.718,19.656 L599.718,21.336 L606.634,21.336 L606.634,19.656 L605.01,19.656 L605.01,11.256 C605.01,10.8453333 605.089333,10.486 605.248,10.178 C605.406667,9.87 605.612,9.618 605.864,9.422 C606.116,9.226 606.405333,9.08133333 606.732,8.988 C607.058667,8.89466667 607.39,8.848 607.726,8.848 C608.622,8.848 609.266,9.09533333 609.658,9.59 C610.05,10.0846667 610.246,10.8826667 610.246,11.984 L610.246,11.984 L610.246,19.656 L608.622,19.656 L608.622,21.336 L615.706,21.336 L615.706,19.656 L613.914,19.656 L613.914,11.816 C613.914,10.0053333 613.554667,8.64733333 612.836,7.742 C612.117333,6.83666667 610.899333,6.384 609.182,6.384 C608.566,6.384 608.02,6.46333333 607.544,6.622 C607.068,6.78066667 606.648,6.99066667 606.284,7.252 C605.92,7.51333333 605.612,7.812 605.36,8.148 C605.108,8.484 604.907333,8.82933333 604.758,9.184 L604.758,9.184 L604.646,9.184 C604.384667,8.25066667 603.908667,7.55066667 603.218,7.084 C602.527333,6.61733333 601.566,6.384 600.334,6.384 C599.755333,6.384 599.237333,6.45866667 598.78,6.608 C598.322667,6.75733333 597.926,6.958 597.59,7.21 C597.254,7.462 596.969333,7.75133333 596.736,8.078 C596.502667,8.40466667 596.320667,8.74533333 596.19,9.1 L596.19,9.1 L596.05,9.1 L596.05,6.384 L590.646,7.504 L590.646,8.904 L592.438,9.268 L592.438,19.656 L590.646,19.656 L590.646,21.336 L597.73,21.336 Z M629.314,21.336 L629.314,19.656 L626.99,19.656 L628.446,15.26 L635.194,15.26 L636.65,19.656 L634.326,19.656 L634.326,21.336 L642.082,21.336 L642.082,19.656 L640.654,19.656 L634.494,1.792 L630.994,1.792 L624.834,19.656 L623.406,19.656 L623.406,21.336 L629.314,21.336 Z M634.69,13.496 L628.95,13.496 L631.75,4.816 L631.89,4.816 L634.69,13.496 Z M651.63,21.336 L651.63,19.656 L649.642,19.656 L649.642,3.472 L651.63,3.472 L651.63,1.792 L643.734,1.792 L643.734,3.472 L645.722,3.472 L645.722,19.656 L643.734,19.656 L643.734,21.336 L651.63,21.336 Z" id="FathomAI" fill="#7756A8" fill-rule="nonzero"></path>
                <path d="M509.978,715.672 C510.93,715.672 511.798,715.532 512.582,715.252 C513.366,714.972 514.061333,714.598667 514.668,714.132 C515.274667,713.665333 515.788,713.128667 516.208,712.522 C516.628,711.915333 516.95,711.276 517.174,710.604 L517.174,710.604 L515.746,709.792 C515.316667,710.856 514.677333,711.71 513.828,712.354 C512.978667,712.998 511.938,713.32 510.706,713.32 C509.212667,713.32 508.013333,712.867333 507.108,711.962 C506.202667,711.056667 505.75,709.689333 505.75,707.86 L505.75,707.86 L505.75,702.848 C505.75,701.112 506.132667,699.768 506.898,698.816 C507.663333,697.864 508.774,697.388 510.23,697.388 C511.462,697.388 512.418667,697.677333 513.1,698.256 C513.781333,698.834667 514.122,699.6 514.122,700.552 L514.122,700.552 L514.122,701.868 L517.006,701.868 L517.006,695.792 L514.122,695.792 L514.122,697.444 L513.982,697.444 C513.720667,696.958667 513.244667,696.506 512.554,696.086 C511.863333,695.666 510.911333,695.456 509.698,695.456 C508.578,695.456 507.514,695.675333 506.506,696.114 C505.498,696.552667 504.620667,697.201333 503.874,698.06 C503.127333,698.918667 502.534667,699.978 502.096,701.238 C501.657333,702.498 501.438,703.949333 501.438,705.592 C501.438,707.048 501.629333,708.392 502.012,709.624 C502.394667,710.856 502.954667,711.92 503.692,712.816 C504.429333,713.712 505.325333,714.412 506.38,714.916 C507.434667,715.42 508.634,715.672 509.978,715.672 Z M526.582,715.336 L526.582,713.656 L524.79,713.656 L524.79,694.056 L519.33,695.176 L519.33,696.576 L521.122,696.94 L521.122,713.656 L519.33,713.656 L519.33,715.336 L526.582,715.336 Z M532.154,698.396 C532.844667,698.396 533.381333,698.2 533.764,697.808 C534.146667,697.416 534.338,696.902667 534.338,696.268 L534.338,696.268 L534.338,696.128 C534.338,695.493333 534.146667,694.98 533.764,694.588 C533.381333,694.196 532.844667,694 532.154,694 C531.463333,694 530.926667,694.196 530.544,694.588 C530.161333,694.98 529.97,695.493333 529.97,696.128 L529.97,696.128 L529.97,696.268 C529.97,696.902667 530.161333,697.416 530.544,697.808 C530.926667,698.2 531.463333,698.396 532.154,698.396 Z M535.794,715.336 L535.794,713.656 L534.002,713.656 L534.002,700.384 L528.542,701.504 L528.542,702.904 L530.334,703.268 L530.334,713.656 L528.542,713.656 L528.542,715.336 L535.794,715.336 Z M544.726,715.672 C545.603333,715.672 546.378,715.550667 547.05,715.308 C547.722,715.065333 548.305333,714.748 548.8,714.356 C549.294667,713.964 549.705333,713.53 550.032,713.054 C550.358667,712.578 550.606,712.106667 550.774,711.64 L550.774,711.64 L549.402,710.8 C549.103333,711.490667 548.636667,712.069333 548.002,712.536 C547.367333,713.002667 546.527333,713.236 545.482,713.236 C544.343333,713.236 543.424,712.876667 542.724,712.158 C542.024,711.439333 541.674,710.408 541.674,709.064 L541.674,709.064 L541.674,708.056 L551.082,708.056 L551.082,707.188 C551.082,706.161333 550.928,705.232667 550.62,704.402 C550.312,703.571333 549.873333,702.857333 549.304,702.26 C548.734667,701.662667 548.044,701.200667 547.232,700.874 C546.42,700.547333 545.51,700.384 544.502,700.384 C543.494,700.384 542.574667,700.561333 541.744,700.916 C540.913333,701.270667 540.199333,701.779333 539.602,702.442 C539.004667,703.104667 538.542667,703.907333 538.216,704.85 C537.889333,705.792667 537.726,706.842667 537.726,708 C537.726,709.12 537.88,710.151333 538.188,711.094 C538.496,712.036667 538.948667,712.848667 539.546,713.53 C540.143333,714.211333 540.876,714.738667 541.744,715.112 C542.612,715.485333 543.606,715.672 544.726,715.672 Z M547.274,706.432 L541.674,706.432 L541.674,706.04 C541.674,704.696 541.921333,703.711333 542.416,703.086 C542.910667,702.460667 543.606,702.148 544.502,702.148 C545.398,702.148 546.084,702.465333 546.56,703.1 C547.036,703.734667 547.274,704.724 547.274,706.068 L547.274,706.068 L547.274,706.432 Z M560.462,715.336 L560.462,713.656 L558.754,713.656 L558.754,705.228 C558.754,704.817333 558.838,704.462667 559.006,704.164 C559.174,703.865333 559.393333,703.618 559.664,703.422 C559.934667,703.226 560.238,703.081333 560.574,702.988 C560.91,702.894667 561.255333,702.848 561.61,702.848 C562.524667,702.848 563.187333,703.095333 563.598,703.59 C564.008667,704.084667 564.214,704.882667 564.214,705.984 L564.214,705.984 L564.214,713.656 L562.506,713.656 L562.506,715.336 L569.674,715.336 L569.674,713.656 L567.882,713.656 L567.882,705.816 C567.882,704.005333 567.508667,702.647333 566.762,701.742 C566.015333,700.836667 564.755333,700.384 562.982,700.384 C562.403333,700.384 561.89,700.458667 561.442,700.608 C560.994,700.757333 560.597333,700.958 560.252,701.21 C559.906667,701.462 559.617333,701.751333 559.384,702.078 C559.150667,702.404667 558.968667,702.745333 558.838,703.1 L558.838,703.1 L558.698,703.1 L558.698,700.384 L553.294,701.504 L553.294,702.904 L555.086,703.268 L555.086,713.656 L553.294,713.656 L553.294,715.336 L560.462,715.336 Z M576.254,715.588 C577.131333,715.588 577.934,715.532 578.662,715.42 C579.39,715.308 579.903333,715.177333 580.202,715.028 L580.202,715.028 L580.202,713.6 L576.842,713.6 L576.842,702.512 L580.202,702.512 L580.202,700.72 L576.842,700.72 L576.842,696.772 L574.994,696.772 L573.986,699.208 C573.780667,699.712 573.538,700.09 573.258,700.342 C572.978,700.594 572.511333,700.72 571.858,700.72 L571.858,700.72 L571.242,700.72 L571.242,702.512 L573.174,702.512 L573.174,712.732 C573.174,713.702667 573.412,714.421333 573.888,714.888 C574.364,715.354667 575.152667,715.588 576.254,715.588 Z M595.378,715.672 C596.218,715.672 596.964667,715.546 597.618,715.294 C598.271333,715.042 598.836,714.72 599.312,714.328 C599.788,713.936 600.18,713.497333 600.488,713.012 C600.796,712.526667 601.034,712.050667 601.202,711.584 L601.202,711.584 L599.858,710.744 C599.540667,711.434667 599.069333,712.022667 598.444,712.508 C597.818667,712.993333 596.974,713.236 595.91,713.236 C594.79,713.236 593.912667,712.872 593.278,712.144 C592.643333,711.416 592.326,710.389333 592.326,709.064 L592.326,709.064 L592.326,706.404 C592.326,705.06 592.671333,703.996 593.362,703.212 C594.052667,702.428 594.986,702.036 596.162,702.036 C596.647333,702.036 597.034667,702.064 597.324,702.12 C597.613333,702.176 597.860667,702.250667 598.066,702.344 L598.066,702.344 L598.066,702.484 C597.73,702.633333 597.445333,702.866667 597.212,703.184 C596.978667,703.501333 596.862,703.884 596.862,704.332 C596.862,704.892 597.034667,705.349333 597.38,705.704 C597.725333,706.058667 598.224667,706.236 598.878,706.236 C599.531333,706.236 600.04,706.04 600.404,705.648 C600.768,705.256 600.95,704.724 600.95,704.052 C600.95,702.988 600.492667,702.110667 599.578,701.42 C598.663333,700.729333 597.375333,700.384 595.714,700.384 C594.668667,700.384 593.698,700.556667 592.802,700.902 C591.906,701.247333 591.131333,701.742 590.478,702.386 C589.824667,703.03 589.311333,703.828 588.938,704.78 C588.564667,705.732 588.378,706.805333 588.378,708 C588.378,709.101333 588.532,710.123333 588.84,711.066 C589.148,712.008667 589.596,712.820667 590.184,713.502 C590.772,714.183333 591.5,714.715333 592.368,715.098 C593.236,715.480667 594.239333,715.672 595.378,715.672 Z M610.106,715.672 C611.151333,715.672 612.098667,715.499333 612.948,715.154 C613.797333,714.808667 614.525333,714.304667 615.132,713.642 C615.738667,712.979333 616.21,712.176667 616.546,711.234 C616.882,710.291333 617.05,709.222667 617.05,708.028 C617.05,706.833333 616.882,705.764667 616.546,704.822 C616.21,703.879333 615.738667,703.076667 615.132,702.414 C614.525333,701.751333 613.797333,701.247333 612.948,700.902 C612.098667,700.556667 611.151333,700.384 610.106,700.384 C609.060667,700.384 608.113333,700.556667 607.264,700.902 C606.414667,701.247333 605.686667,701.751333 605.08,702.414 C604.473333,703.076667 604.002,703.879333 603.666,704.822 C603.33,705.764667 603.162,706.833333 603.162,708.028 C603.162,709.222667 603.33,710.291333 603.666,711.234 C604.002,712.176667 604.473333,712.979333 605.08,713.642 C605.686667,714.304667 606.414667,714.808667 607.264,715.154 C608.113333,715.499333 609.060667,715.672 610.106,715.672 Z M610.106,713.824 C609.098,713.824 608.346667,713.516 607.852,712.9 C607.357333,712.284 607.11,711.416 607.11,710.296 L607.11,710.296 L607.11,705.76 C607.11,704.64 607.357333,703.772 607.852,703.156 C608.346667,702.54 609.098,702.232 610.106,702.232 C611.114,702.232 611.865333,702.54 612.36,703.156 C612.854667,703.772 613.102,704.64 613.102,705.76 L613.102,705.76 L613.102,710.296 C613.102,711.416 612.854667,712.284 612.36,712.9 C611.865333,713.516 611.114,713.824 610.106,713.824 Z M629.342,715.672 L634.802,714.552 L634.802,713.152 L633.01,712.788 L633.01,694.056 L627.55,695.176 L627.55,696.576 L629.342,696.94 L629.342,702.876 L629.202,702.876 C628.922,702.222667 628.455333,701.644 627.802,701.14 C627.148667,700.636 626.29,700.384 625.226,700.384 C624.33,700.384 623.522667,700.561333 622.804,700.916 C622.085333,701.270667 621.469333,701.779333 620.956,702.442 C620.442667,703.104667 620.050667,703.907333 619.78,704.85 C619.509333,705.792667 619.374,706.852 619.374,708.028 C619.374,709.204 619.509333,710.263333 619.78,711.206 C620.050667,712.148667 620.442667,712.951333 620.956,713.614 C621.469333,714.276667 622.085333,714.785333 622.804,715.14 C623.522667,715.494667 624.33,715.672 625.226,715.672 C626.271333,715.672 627.125333,715.42 627.788,714.916 C628.450667,714.412 628.922,713.824 629.202,713.152 L629.202,713.152 L629.342,713.152 L629.342,715.672 Z M626.43,713.376 C625.496667,713.376 624.740667,713.058667 624.162,712.424 C623.583333,711.789333 623.294,710.893333 623.294,709.736 L623.294,709.736 L623.294,706.32 C623.294,705.162667 623.583333,704.266667 624.162,703.632 C624.740667,702.997333 625.496667,702.68 626.43,702.68 C627.214,702.68 627.895333,702.918 628.474,703.394 C629.052667,703.87 629.342,704.518667 629.342,705.34 L629.342,705.34 L629.342,710.716 C629.342,711.537333 629.052667,712.186 628.474,712.662 C627.895333,713.138 627.214,713.376 626.43,713.376 Z M643.734,715.672 C644.611333,715.672 645.386,715.550667 646.058,715.308 C646.73,715.065333 647.313333,714.748 647.808,714.356 C648.302667,713.964 648.713333,713.53 649.04,713.054 C649.366667,712.578 649.614,712.106667 649.782,711.64 L649.782,711.64 L648.41,710.8 C648.111333,711.490667 647.644667,712.069333 647.01,712.536 C646.375333,713.002667 645.535333,713.236 644.49,713.236 C643.351333,713.236 642.432,712.876667 641.732,712.158 C641.032,711.439333 640.682,710.408 640.682,709.064 L640.682,709.064 L640.682,708.056 L650.09,708.056 L650.09,707.188 C650.09,706.161333 649.936,705.232667 649.628,704.402 C649.32,703.571333 648.881333,702.857333 648.312,702.26 C647.742667,701.662667 647.052,701.200667 646.24,700.874 C645.428,700.547333 644.518,700.384 643.51,700.384 C642.502,700.384 641.582667,700.561333 640.752,700.916 C639.921333,701.270667 639.207333,701.779333 638.61,702.442 C638.012667,703.104667 637.550667,703.907333 637.224,704.85 C636.897333,705.792667 636.734,706.842667 636.734,708 C636.734,709.12 636.888,710.151333 637.196,711.094 C637.504,712.036667 637.956667,712.848667 638.554,713.53 C639.151333,714.211333 639.884,714.738667 640.752,715.112 C641.62,715.485333 642.614,715.672 643.734,715.672 Z M646.282,706.432 L640.682,706.432 L640.682,706.04 C640.682,704.696 640.929333,703.711333 641.424,703.086 C641.918667,702.460667 642.614,702.148 643.51,702.148 C644.406,702.148 645.092,702.465333 645.568,703.1 C646.044,703.734667 646.282,704.724 646.282,706.068 L646.282,706.068 L646.282,706.432 Z M660.142,715.336 L660.142,713.656 L657.79,713.656 L657.79,705.144 C657.79,704.808 657.869333,704.472 658.028,704.136 C658.186667,703.8 658.392,703.496667 658.644,703.226 C658.896,702.955333 659.180667,702.731333 659.498,702.554 C659.815333,702.376667 660.132667,702.288 660.45,702.288 C660.636667,702.288 660.767333,702.297333 660.842,702.316 L660.842,702.316 L660.842,702.428 C660.692667,702.484 660.562,702.614667 660.45,702.82 C660.338,703.025333 660.282,703.258667 660.282,703.52 C660.282,704.005333 660.45,704.416 660.786,704.752 C661.122,705.088 661.607333,705.256 662.242,705.256 C662.876667,705.256 663.371333,705.06 663.726,704.668 C664.080667,704.276 664.258,703.725333 664.258,703.016 C664.258,702.194667 664.001333,701.550667 663.488,701.084 C662.974667,700.617333 662.27,700.384 661.374,700.384 C660.907333,700.384 660.487333,700.458667 660.114,700.608 C659.740667,700.757333 659.409333,700.958 659.12,701.21 C658.830667,701.462 658.583333,701.751333 658.378,702.078 C658.172667,702.404667 658.004667,702.745333 657.874,703.1 L657.874,703.1 L657.734,703.1 L657.734,700.384 L652.33,701.504 L652.33,702.904 L654.122,703.268 L654.122,713.656 L652.33,713.656 L652.33,715.336 L660.142,715.336 Z" id="Clientcoder" fill="#17202D" fill-rule="nonzero"></path>
                <path d="M8.54,21.672 C9.492,21.672 10.36,21.532 11.144,21.252 C11.928,20.972 12.6233333,20.5986667 13.23,20.132 C13.8366667,19.6653333 14.35,19.1286667 14.77,18.522 C15.19,17.9153333 15.512,17.276 15.736,16.604 L15.736,16.604 L14.308,15.792 C13.8786667,16.856 13.2393333,17.71 12.39,18.354 C11.5406667,18.998 10.5,19.32 9.268,19.32 C7.77466667,19.32 6.57533333,18.8673333 5.67,17.962 C4.76466667,17.0566667 4.312,15.6893333 4.312,13.86 L4.312,13.86 L4.312,8.848 C4.312,7.112 4.69466667,5.768 5.46,4.816 C6.22533333,3.864 7.336,3.388 8.792,3.388 C10.024,3.388 10.9806667,3.67733333 11.662,4.256 C12.3433333,4.83466667 12.684,5.6 12.684,6.552 L12.684,6.552 L12.684,7.868 L15.568,7.868 L15.568,1.792 L12.684,1.792 L12.684,3.444 L12.544,3.444 C12.2826667,2.95866667 11.8066667,2.506 11.116,2.086 C10.4253333,1.666 9.47333333,1.456 8.26,1.456 C7.14,1.456 6.076,1.67533333 5.068,2.114 C4.06,2.55266667 3.18266667,3.20133333 2.436,4.06 C1.68933333,4.91866667 1.09666667,5.978 0.658,7.238 C0.219333333,8.498 -2.84217094e-14,9.94933333 -2.84217094e-14,11.592 C-2.84217094e-14,13.048 0.191333333,14.392 0.574,15.624 C0.956666667,16.856 1.51666667,17.92 2.254,18.816 C2.99133333,19.712 3.88733333,20.412 4.942,20.916 C5.99666667,21.42 7.196,21.672 8.54,21.672 Z M25.144,21.336 L25.144,19.656 L23.352,19.656 L23.352,0.056 L17.892,1.176 L17.892,2.576 L19.684,2.94 L19.684,19.656 L17.892,19.656 L17.892,21.336 L25.144,21.336 Z M30.716,4.396 C31.4066667,4.396 31.9433333,4.2 32.326,3.808 C32.7086667,3.416 32.9,2.90266667 32.9,2.268 L32.9,2.268 L32.9,2.128 C32.9,1.49333333 32.7086667,0.98 32.326,0.588 C31.9433333,0.196 31.4066667,7.10542736e-15 30.716,7.10542736e-15 C30.0253333,7.10542736e-15 29.4886667,0.196 29.106,0.588 C28.7233333,0.98 28.532,1.49333333 28.532,2.128 L28.532,2.128 L28.532,2.268 C28.532,2.90266667 28.7233333,3.416 29.106,3.808 C29.4886667,4.2 30.0253333,4.396 30.716,4.396 Z M34.356,21.336 L34.356,19.656 L32.564,19.656 L32.564,6.384 L27.104,7.504 L27.104,8.904 L28.896,9.268 L28.896,19.656 L27.104,19.656 L27.104,21.336 L34.356,21.336 Z M43.288,21.672 C44.1653333,21.672 44.94,21.5506667 45.612,21.308 C46.284,21.0653333 46.8673333,20.748 47.362,20.356 C47.8566667,19.964 48.2673333,19.53 48.594,19.054 C48.9206667,18.578 49.168,18.1066667 49.336,17.64 L49.336,17.64 L47.964,16.8 C47.6653333,17.4906667 47.1986667,18.0693333 46.564,18.536 C45.9293333,19.0026667 45.0893333,19.236 44.044,19.236 C42.9053333,19.236 41.986,18.8766667 41.286,18.158 C40.586,17.4393333 40.236,16.408 40.236,15.064 L40.236,15.064 L40.236,14.056 L49.644,14.056 L49.644,13.188 C49.644,12.1613333 49.49,11.2326667 49.182,10.402 C48.874,9.57133333 48.4353333,8.85733333 47.866,8.26 C47.2966667,7.66266667 46.606,7.20066667 45.794,6.874 C44.982,6.54733333 44.072,6.384 43.064,6.384 C42.056,6.384 41.1366667,6.56133333 40.306,6.916 C39.4753333,7.27066667 38.7613333,7.77933333 38.164,8.442 C37.5666667,9.10466667 37.1046667,9.90733333 36.778,10.85 C36.4513333,11.7926667 36.288,12.8426667 36.288,14 C36.288,15.12 36.442,16.1513333 36.75,17.094 C37.058,18.0366667 37.5106667,18.8486667 38.108,19.53 C38.7053333,20.2113333 39.438,20.7386667 40.306,21.112 C41.174,21.4853333 42.168,21.672 43.288,21.672 Z M45.836,12.432 L40.236,12.432 L40.236,12.04 C40.236,10.696 40.4833333,9.71133333 40.978,9.086 C41.4726667,8.46066667 42.168,8.148 43.064,8.148 C43.96,8.148 44.646,8.46533333 45.122,9.1 C45.598,9.73466667 45.836,10.724 45.836,12.068 L45.836,12.068 L45.836,12.432 Z M59.024,21.336 L59.024,19.656 L57.316,19.656 L57.316,11.228 C57.316,10.8173333 57.4,10.4626667 57.568,10.164 C57.736,9.86533333 57.9553333,9.618 58.226,9.422 C58.4966667,9.226 58.8,9.08133333 59.136,8.988 C59.472,8.89466667 59.8173333,8.848 60.172,8.848 C61.0866667,8.848 61.7493333,9.09533333 62.16,9.59 C62.5706667,10.0846667 62.776,10.8826667 62.776,11.984 L62.776,11.984 L62.776,19.656 L61.068,19.656 L61.068,21.336 L68.236,21.336 L68.236,19.656 L66.444,19.656 L66.444,11.816 C66.444,10.0053333 66.0706667,8.64733333 65.324,7.742 C64.5773333,6.83666667 63.3173333,6.384 61.544,6.384 C60.9653333,6.384 60.452,6.45866667 60.004,6.608 C59.556,6.75733333 59.1593333,6.958 58.814,7.21 C58.4686667,7.462 58.1793333,7.75133333 57.946,8.078 C57.7126667,8.40466667 57.5306667,8.74533333 57.4,9.1 L57.4,9.1 L57.26,9.1 L57.26,6.384 L51.856,7.504 L51.856,8.904 L53.648,9.268 L53.648,19.656 L51.856,19.656 L51.856,21.336 L59.024,21.336 Z M74.816,21.588 C75.6933333,21.588 76.496,21.532 77.224,21.42 C77.952,21.308 78.4653333,21.1773333 78.764,21.028 L78.764,21.028 L78.764,19.6 L75.404,19.6 L75.404,8.512 L78.764,8.512 L78.764,6.72 L75.404,6.72 L75.404,2.772 L73.556,2.772 L72.548,5.208 C72.3426667,5.712 72.1,6.09 71.82,6.342 C71.54,6.594 71.0733333,6.72 70.42,6.72 L70.42,6.72 L69.804,6.72 L69.804,8.512 L71.736,8.512 L71.736,18.732 C71.736,19.7026667 71.974,20.4213333 72.45,20.888 C72.926,21.3546667 73.7146667,21.588 74.816,21.588 Z M93.94,21.672 C94.78,21.672 95.5266667,21.546 96.18,21.294 C96.8333333,21.042 97.398,20.72 97.874,20.328 C98.35,19.936 98.742,19.4973333 99.05,19.012 C99.358,18.5266667 99.596,18.0506667 99.764,17.584 L99.764,17.584 L98.42,16.744 C98.1026667,17.4346667 97.6313333,18.0226667 97.006,18.508 C96.3806667,18.9933333 95.536,19.236 94.472,19.236 C93.352,19.236 92.4746667,18.872 91.84,18.144 C91.2053333,17.416 90.888,16.3893333 90.888,15.064 L90.888,15.064 L90.888,12.404 C90.888,11.06 91.2333333,9.996 91.924,9.212 C92.6146667,8.428 93.548,8.036 94.724,8.036 C95.2093333,8.036 95.5966667,8.064 95.886,8.12 C96.1753333,8.176 96.4226667,8.25066667 96.628,8.344 L96.628,8.344 L96.628,8.484 C96.292,8.63333333 96.0073333,8.86666667 95.774,9.184 C95.5406667,9.50133333 95.424,9.884 95.424,10.332 C95.424,10.892 95.5966667,11.3493333 95.942,11.704 C96.2873333,12.0586667 96.7866667,12.236 97.44,12.236 C98.0933333,12.236 98.602,12.04 98.966,11.648 C99.33,11.256 99.512,10.724 99.512,10.052 C99.512,8.988 99.0546667,8.11066667 98.14,7.42 C97.2253333,6.72933333 95.9373333,6.384 94.276,6.384 C93.2306667,6.384 92.26,6.55666667 91.364,6.902 C90.468,7.24733333 89.6933333,7.742 89.04,8.386 C88.3866667,9.03 87.8733333,9.828 87.5,10.78 C87.1266667,11.732 86.94,12.8053333 86.94,14 C86.94,15.1013333 87.094,16.1233333 87.402,17.066 C87.71,18.0086667 88.158,18.8206667 88.746,19.502 C89.334,20.1833333 90.062,20.7153333 90.93,21.098 C91.798,21.4806667 92.8013333,21.672 93.94,21.672 Z M108.584,21.336 L108.584,19.656 L106.876,19.656 L106.876,11.228 C106.876,10.8173333 106.96,10.4626667 107.128,10.164 C107.296,9.86533333 107.515333,9.618 107.786,9.422 C108.056667,9.226 108.36,9.08133333 108.696,8.988 C109.032,8.89466667 109.377333,8.848 109.732,8.848 C110.646667,8.848 111.309333,9.09533333 111.72,9.59 C112.130667,10.0846667 112.336,10.8826667 112.336,11.984 L112.336,11.984 L112.336,19.656 L110.628,19.656 L110.628,21.336 L117.796,21.336 L117.796,19.656 L116.004,19.656 L116.004,11.816 C116.004,10.0053333 115.630667,8.64733333 114.884,7.742 C114.137333,6.83666667 112.877333,6.384 111.104,6.384 C110.544,6.384 110.04,6.45866667 109.592,6.608 C109.144,6.75733333 108.752,6.958 108.416,7.21 C108.08,7.462 107.795333,7.75133333 107.562,8.078 C107.328667,8.40466667 107.146667,8.74533333 107.016,9.1 L107.016,9.1 L106.876,9.1 L106.876,0.056 L101.416,1.176 L101.416,2.576 L103.208,2.94 L103.208,19.656 L101.416,19.656 L101.416,21.336 L108.584,21.336 Z M130.928,21.672 C131.413333,21.672 131.889333,21.6206667 132.356,21.518 C132.822667,21.4153333 133.196,21.2706667 133.476,21.084 L133.476,21.084 L133.476,19.684 L131.684,19.684 L131.684,11.228 C131.684,9.69733333 131.217333,8.50733333 130.284,7.658 C129.350667,6.80866667 127.950667,6.384 126.084,6.384 C125.113333,6.384 124.259333,6.482 123.522,6.678 C122.784667,6.874 122.164,7.13533333 121.66,7.462 C121.156,7.78866667 120.778,8.162 120.526,8.582 C120.274,9.002 120.148,9.436 120.148,9.884 C120.148,10.4626667 120.320667,10.9293333 120.666,11.284 C121.011333,11.6386667 121.454667,11.816 121.996,11.816 C122.630667,11.816 123.111333,11.6433333 123.438,11.298 C123.764667,10.9526667 123.928,10.5093333 123.928,9.968 C123.928,9.55733333 123.839333,9.23533333 123.662,9.002 C123.484667,8.76866667 123.302667,8.596 123.116,8.484 L123.116,8.484 L123.116,8.372 C123.564,8.12933333 124.198667,8.008 125.02,8.008 C126.084,8.008 126.849333,8.302 127.316,8.89 C127.782667,9.478 128.016,10.3413333 128.016,11.48 L128.016,11.48 L128.016,13.244 L126.028,13.244 C123.825333,13.244 122.206,13.608 121.17,14.336 C120.134,15.064 119.616,16.1373333 119.616,17.556 C119.616,18.844 119.98,19.852 120.708,20.58 C121.436,21.308 122.556,21.672 124.068,21.672 C124.702667,21.672 125.248667,21.5973333 125.706,21.448 C126.163333,21.2986667 126.550667,21.1073333 126.868,20.874 C127.185333,20.6406667 127.446667,20.3746667 127.652,20.076 C127.857333,19.7773333 128.025333,19.4693333 128.156,19.152 L128.156,19.152 L128.296,19.152 L128.296,19.236 C128.296,19.9453333 128.501333,20.5286667 128.912,20.986 C129.322667,21.4433333 129.994667,21.672 130.928,21.672 Z M125.496,19.432 C124.842667,19.432 124.315333,19.2826667 123.914,18.984 C123.512667,18.6853333 123.312,18.2186667 123.312,17.584 L123.312,17.584 L123.312,17.08 C123.312,16.3333333 123.55,15.7593333 124.026,15.358 C124.502,14.9566667 125.3,14.756 126.42,14.756 L126.42,14.756 L128.016,14.756 L128.016,17.108 C128.016,17.948 127.782667,18.5453333 127.316,18.9 C126.849333,19.2546667 126.242667,19.432 125.496,19.432 Z M143.248,21.336 L143.248,19.656 L140.896,19.656 L140.896,11.144 C140.896,10.808 140.975333,10.472 141.134,10.136 C141.292667,9.8 141.498,9.49666667 141.75,9.226 C142.002,8.95533333 142.286667,8.73133333 142.604,8.554 C142.921333,8.37666667 143.238667,8.288 143.556,8.288 C143.742667,8.288 143.873333,8.29733333 143.948,8.316 L143.948,8.316 L143.948,8.428 C143.798667,8.484 143.668,8.61466667 143.556,8.82 C143.444,9.02533333 143.388,9.25866667 143.388,9.52 C143.388,10.0053333 143.556,10.416 143.892,10.752 C144.228,11.088 144.713333,11.256 145.348,11.256 C145.982667,11.256 146.477333,11.06 146.832,10.668 C147.186667,10.276 147.364,9.72533333 147.364,9.016 C147.364,8.19466667 147.107333,7.55066667 146.594,7.084 C146.080667,6.61733333 145.376,6.384 144.48,6.384 C144.013333,6.384 143.593333,6.45866667 143.22,6.608 C142.846667,6.75733333 142.515333,6.958 142.226,7.21 C141.936667,7.462 141.689333,7.75133333 141.484,8.078 C141.278667,8.40466667 141.110667,8.74533333 140.98,9.1 L140.98,9.1 L140.84,9.1 L140.84,6.384 L135.436,7.504 L135.436,8.904 L137.228,9.268 L137.228,19.656 L135.436,19.656 L135.436,21.336 L143.248,21.336 Z M153.44,21.588 C154.317333,21.588 155.12,21.532 155.848,21.42 C156.576,21.308 157.089333,21.1773333 157.388,21.028 L157.388,21.028 L157.388,19.6 L154.028,19.6 L154.028,8.512 L157.388,8.512 L157.388,6.72 L154.028,6.72 L154.028,2.772 L152.18,2.772 L151.172,5.208 C150.966667,5.712 150.724,6.09 150.444,6.342 C150.164,6.594 149.697333,6.72 149.044,6.72 L149.044,6.72 L148.428,6.72 L148.428,8.512 L150.36,8.512 L150.36,18.732 C150.36,19.7026667 150.598,20.4213333 151.074,20.888 C151.55,21.3546667 152.338667,21.588 153.44,21.588 Z M165.228,21.672 C166.908,21.672 168.247333,21.266 169.246,20.454 C170.244667,19.642 170.744,18.5173333 170.744,17.08 C170.744,15.7173333 170.352,14.6906667 169.568,14 C168.784,13.3093333 167.626667,12.7773333 166.096,12.404 L166.096,12.404 L164.78,12.096 C163.996,11.9093333 163.440667,11.648 163.114,11.312 C162.787333,10.976 162.624,10.5373333 162.624,9.996 C162.624,8.82 163.426667,8.232 165.032,8.232 C166.04,8.232 166.777333,8.41866667 167.244,8.792 C167.710667,9.16533333 167.944,9.70666667 167.944,10.416 L167.944,10.416 L167.944,11.088 L170.352,11.088 L170.352,6.72 L167.944,6.72 L167.944,8.12 L167.832,8.12 C167.682667,7.65333333 167.332667,7.24733333 166.782,6.902 C166.231333,6.55666667 165.48,6.384 164.528,6.384 C162.96,6.384 161.709333,6.77133333 160.776,7.546 C159.842667,8.32066667 159.376,9.41733333 159.376,10.836 C159.376,12.1053333 159.754,13.1086667 160.51,13.846 C161.266,14.5833333 162.418667,15.1573333 163.968,15.568 L163.968,15.568 L165.368,15.932 C166.077333,16.1186667 166.6,16.366 166.936,16.674 C167.272,16.982 167.44,17.3973333 167.44,17.92 C167.44,19.1893333 166.506667,19.824 164.64,19.824 C163.594667,19.824 162.838667,19.6186667 162.372,19.208 C161.905333,18.7973333 161.672,18.2186667 161.672,17.472 L161.672,17.472 L161.672,16.968 L159.264,16.968 L159.264,21.336 L161.672,21.336 L161.672,19.852 L161.784,19.852 C161.933333,20.3186667 162.297333,20.7386667 162.876,21.112 C163.454667,21.4853333 164.238667,21.672 165.228,21.672 Z" id="Clientcharts" fill="#17202D" fill-rule="nonzero"></path>
                <path d="M1014.756,21.672 C1015.708,21.672 1016.576,21.532 1017.36,21.252 C1018.144,20.972 1018.83933,20.5986667 1019.446,20.132 C1020.05267,19.6653333 1020.566,19.1286667 1020.986,18.522 C1021.406,17.9153333 1021.728,17.276 1021.952,16.604 L1021.952,16.604 L1020.524,15.792 C1020.09467,16.856 1019.45533,17.71 1018.606,18.354 C1017.75667,18.998 1016.716,19.32 1015.484,19.32 C1013.99067,19.32 1012.79133,18.8673333 1011.886,17.962 C1010.98067,17.0566667 1010.528,15.6893333 1010.528,13.86 L1010.528,13.86 L1010.528,8.848 C1010.528,7.112 1010.91067,5.768 1011.676,4.816 C1012.44133,3.864 1013.552,3.388 1015.008,3.388 C1016.24,3.388 1017.19667,3.67733333 1017.878,4.256 C1018.55933,4.83466667 1018.9,5.6 1018.9,6.552 L1018.9,6.552 L1018.9,7.868 L1021.784,7.868 L1021.784,1.792 L1018.9,1.792 L1018.9,3.444 L1018.76,3.444 C1018.49867,2.95866667 1018.02267,2.506 1017.332,2.086 C1016.64133,1.666 1015.68933,1.456 1014.476,1.456 C1013.356,1.456 1012.292,1.67533333 1011.284,2.114 C1010.276,2.55266667 1009.39867,3.20133333 1008.652,4.06 C1007.90533,4.91866667 1007.31267,5.978 1006.874,7.238 C1006.43533,8.498 1006.216,9.94933333 1006.216,11.592 C1006.216,13.048 1006.40733,14.392 1006.79,15.624 C1007.17267,16.856 1007.73267,17.92 1008.47,18.816 C1009.20733,19.712 1010.10333,20.412 1011.158,20.916 C1012.21267,21.42 1013.412,21.672 1014.756,21.672 Z M1031.36,21.336 L1031.36,19.656 L1029.568,19.656 L1029.568,0.056 L1024.108,1.176 L1024.108,2.576 L1025.9,2.94 L1025.9,19.656 L1024.108,19.656 L1024.108,21.336 L1031.36,21.336 Z M1036.932,4.396 C1037.62267,4.396 1038.15933,4.2 1038.542,3.808 C1038.92467,3.416 1039.116,2.90266667 1039.116,2.268 L1039.116,2.268 L1039.116,2.128 C1039.116,1.49333333 1038.92467,0.98 1038.542,0.588 C1038.15933,0.196 1037.62267,2.13162821e-14 1036.932,2.13162821e-14 C1036.24133,2.13162821e-14 1035.70467,0.196 1035.322,0.588 C1034.93933,0.98 1034.748,1.49333333 1034.748,2.128 L1034.748,2.128 L1034.748,2.268 C1034.748,2.90266667 1034.93933,3.416 1035.322,3.808 C1035.70467,4.2 1036.24133,4.396 1036.932,4.396 Z M1040.572,21.336 L1040.572,19.656 L1038.78,19.656 L1038.78,6.384 L1033.32,7.504 L1033.32,8.904 L1035.112,9.268 L1035.112,19.656 L1033.32,19.656 L1033.32,21.336 L1040.572,21.336 Z M1049.504,21.672 C1050.38133,21.672 1051.156,21.5506667 1051.828,21.308 C1052.5,21.0653333 1053.08333,20.748 1053.578,20.356 C1054.07267,19.964 1054.48333,19.53 1054.81,19.054 C1055.13667,18.578 1055.384,18.1066667 1055.552,17.64 L1055.552,17.64 L1054.18,16.8 C1053.88133,17.4906667 1053.41467,18.0693333 1052.78,18.536 C1052.14533,19.0026667 1051.30533,19.236 1050.26,19.236 C1049.12133,19.236 1048.202,18.8766667 1047.502,18.158 C1046.802,17.4393333 1046.452,16.408 1046.452,15.064 L1046.452,15.064 L1046.452,14.056 L1055.86,14.056 L1055.86,13.188 C1055.86,12.1613333 1055.706,11.2326667 1055.398,10.402 C1055.09,9.57133333 1054.65133,8.85733333 1054.082,8.26 C1053.51267,7.66266667 1052.822,7.20066667 1052.01,6.874 C1051.198,6.54733333 1050.288,6.384 1049.28,6.384 C1048.272,6.384 1047.35267,6.56133333 1046.522,6.916 C1045.69133,7.27066667 1044.97733,7.77933333 1044.38,8.442 C1043.78267,9.10466667 1043.32067,9.90733333 1042.994,10.85 C1042.66733,11.7926667 1042.504,12.8426667 1042.504,14 C1042.504,15.12 1042.658,16.1513333 1042.966,17.094 C1043.274,18.0366667 1043.72667,18.8486667 1044.324,19.53 C1044.92133,20.2113333 1045.654,20.7386667 1046.522,21.112 C1047.39,21.4853333 1048.384,21.672 1049.504,21.672 Z M1052.052,12.432 L1046.452,12.432 L1046.452,12.04 C1046.452,10.696 1046.69933,9.71133333 1047.194,9.086 C1047.68867,8.46066667 1048.384,8.148 1049.28,8.148 C1050.176,8.148 1050.862,8.46533333 1051.338,9.1 C1051.814,9.73466667 1052.052,10.724 1052.052,12.068 L1052.052,12.068 L1052.052,12.432 Z M1065.24,21.336 L1065.24,19.656 L1063.532,19.656 L1063.532,11.228 C1063.532,10.8173333 1063.616,10.4626667 1063.784,10.164 C1063.952,9.86533333 1064.17133,9.618 1064.442,9.422 C1064.71267,9.226 1065.016,9.08133333 1065.352,8.988 C1065.688,8.89466667 1066.03333,8.848 1066.388,8.848 C1067.30267,8.848 1067.96533,9.09533333 1068.376,9.59 C1068.78667,10.0846667 1068.992,10.8826667 1068.992,11.984 L1068.992,11.984 L1068.992,19.656 L1067.284,19.656 L1067.284,21.336 L1074.452,21.336 L1074.452,19.656 L1072.66,19.656 L1072.66,11.816 C1072.66,10.0053333 1072.28667,8.64733333 1071.54,7.742 C1070.79333,6.83666667 1069.53333,6.384 1067.76,6.384 C1067.18133,6.384 1066.668,6.45866667 1066.22,6.608 C1065.772,6.75733333 1065.37533,6.958 1065.03,7.21 C1064.68467,7.462 1064.39533,7.75133333 1064.162,8.078 C1063.92867,8.40466667 1063.74667,8.74533333 1063.616,9.1 L1063.616,9.1 L1063.476,9.1 L1063.476,6.384 L1058.072,7.504 L1058.072,8.904 L1059.864,9.268 L1059.864,19.656 L1058.072,19.656 L1058.072,21.336 L1065.24,21.336 Z M1081.032,21.588 C1081.90933,21.588 1082.712,21.532 1083.44,21.42 C1084.168,21.308 1084.68133,21.1773333 1084.98,21.028 L1084.98,21.028 L1084.98,19.6 L1081.62,19.6 L1081.62,8.512 L1084.98,8.512 L1084.98,6.72 L1081.62,6.72 L1081.62,2.772 L1079.772,2.772 L1078.764,5.208 C1078.55867,5.712 1078.316,6.09 1078.036,6.342 C1077.756,6.594 1077.28933,6.72 1076.636,6.72 L1076.636,6.72 L1076.02,6.72 L1076.02,8.512 L1077.952,8.512 L1077.952,18.732 C1077.952,19.7026667 1078.19,20.4213333 1078.666,20.888 C1079.142,21.3546667 1079.93067,21.588 1081.032,21.588 Z M1102.2,21.672 C1103.096,21.672 1103.90333,21.4946667 1104.622,21.14 C1105.34067,20.7853333 1105.95667,20.2766667 1106.47,19.614 C1106.98333,18.9513333 1107.37533,18.1486667 1107.646,17.206 C1107.91667,16.2633333 1108.052,15.204 1108.052,14.028 C1108.052,12.852 1107.91667,11.7926667 1107.646,10.85 C1107.37533,9.90733333 1106.98333,9.10466667 1106.47,8.442 C1105.95667,7.77933333 1105.34067,7.27066667 1104.622,6.916 C1103.90333,6.56133333 1103.096,6.384 1102.2,6.384 C1101.136,6.384 1100.27733,6.636 1099.624,7.14 C1098.97067,7.644 1098.504,8.22266667 1098.224,8.876 L1098.224,8.876 L1098.084,8.876 L1098.084,0.056 L1092.624,1.176 L1092.624,2.576 L1094.416,2.94 L1094.416,21.336 L1096.068,21.336 L1097.832,19.152 L1097.972,19.152 C1098.252,19.824 1098.74667,20.412 1099.456,20.916 C1100.16533,21.42 1101.08,21.672 1102.2,21.672 Z M1100.996,19.376 C1100.212,19.376 1099.53067,19.138 1098.952,18.662 C1098.37333,18.186 1098.084,17.5373333 1098.084,16.716 L1098.084,16.716 L1098.084,11.34 C1098.084,10.5186667 1098.37333,9.87 1098.952,9.394 C1099.53067,8.918 1100.212,8.68 1100.996,8.68 C1101.92933,8.68 1102.68533,8.99733333 1103.264,9.632 C1103.84267,10.2666667 1104.132,11.1626667 1104.132,12.32 L1104.132,12.32 L1104.132,15.736 C1104.132,16.8933333 1103.84267,17.7893333 1103.264,18.424 C1102.68533,19.0586667 1101.92933,19.376 1100.996,19.376 Z M1114.044,4.396 C1114.73467,4.396 1115.27133,4.2 1115.654,3.808 C1116.03667,3.416 1116.228,2.90266667 1116.228,2.268 L1116.228,2.268 L1116.228,2.128 C1116.228,1.49333333 1116.03667,0.98 1115.654,0.588 C1115.27133,0.196 1114.73467,2.13162821e-14 1114.044,2.13162821e-14 C1113.35333,2.13162821e-14 1112.81667,0.196 1112.434,0.588 C1112.05133,0.98 1111.86,1.49333333 1111.86,2.128 L1111.86,2.128 L1111.86,2.268 C1111.86,2.90266667 1112.05133,3.416 1112.434,3.808 C1112.81667,4.2 1113.35333,4.396 1114.044,4.396 Z M1117.684,21.336 L1117.684,19.656 L1115.892,19.656 L1115.892,6.384 L1110.432,7.504 L1110.432,8.904 L1112.224,9.268 L1112.224,19.656 L1110.432,19.656 L1110.432,21.336 L1117.684,21.336 Z M1126.588,21.336 L1126.588,19.656 L1124.796,19.656 L1124.796,0.056 L1119.336,1.176 L1119.336,2.576 L1121.128,2.94 L1121.128,19.656 L1119.336,19.656 L1119.336,21.336 L1126.588,21.336 Z M1135.492,21.336 L1135.492,19.656 L1133.7,19.656 L1133.7,0.056 L1128.24,1.176 L1128.24,2.576 L1130.032,2.94 L1130.032,19.656 L1128.24,19.656 L1128.24,21.336 L1135.492,21.336 Z M1141.064,4.396 C1141.75467,4.396 1142.29133,4.2 1142.674,3.808 C1143.05667,3.416 1143.248,2.90266667 1143.248,2.268 L1143.248,2.268 L1143.248,2.128 C1143.248,1.49333333 1143.05667,0.98 1142.674,0.588 C1142.29133,0.196 1141.75467,2.13162821e-14 1141.064,2.13162821e-14 C1140.37333,2.13162821e-14 1139.83667,0.196 1139.454,0.588 C1139.07133,0.98 1138.88,1.49333333 1138.88,2.128 L1138.88,2.128 L1138.88,2.268 C1138.88,2.90266667 1139.07133,3.416 1139.454,3.808 C1139.83667,4.2 1140.37333,4.396 1141.064,4.396 Z M1144.704,21.336 L1144.704,19.656 L1142.912,19.656 L1142.912,6.384 L1137.452,7.504 L1137.452,8.904 L1139.244,9.268 L1139.244,19.656 L1137.452,19.656 L1137.452,21.336 L1144.704,21.336 Z M1153.804,21.336 L1153.804,19.656 L1152.096,19.656 L1152.096,11.228 C1152.096,10.8173333 1152.18,10.4626667 1152.348,10.164 C1152.516,9.86533333 1152.73533,9.618 1153.006,9.422 C1153.27667,9.226 1153.58,9.08133333 1153.916,8.988 C1154.252,8.89466667 1154.59733,8.848 1154.952,8.848 C1155.86667,8.848 1156.52933,9.09533333 1156.94,9.59 C1157.35067,10.0846667 1157.556,10.8826667 1157.556,11.984 L1157.556,11.984 L1157.556,19.656 L1155.848,19.656 L1155.848,21.336 L1163.016,21.336 L1163.016,19.656 L1161.224,19.656 L1161.224,11.816 C1161.224,10.0053333 1160.85067,8.64733333 1160.104,7.742 C1159.35733,6.83666667 1158.09733,6.384 1156.324,6.384 C1155.74533,6.384 1155.232,6.45866667 1154.784,6.608 C1154.336,6.75733333 1153.93933,6.958 1153.594,7.21 C1153.24867,7.462 1152.95933,7.75133333 1152.726,8.078 C1152.49267,8.40466667 1152.31067,8.74533333 1152.18,9.1 L1152.18,9.1 L1152.04,9.1 L1152.04,6.384 L1146.636,7.504 L1146.636,8.904 L1148.428,9.268 L1148.428,19.656 L1146.636,19.656 L1146.636,21.336 L1153.804,21.336 Z M1171.472,27.272 C1174.048,27.272 1175.97067,26.8426667 1177.24,25.984 C1178.50933,25.1253333 1179.144,23.94 1179.144,22.428 C1179.144,21.196 1178.724,20.2253333 1177.884,19.516 C1177.044,18.8066667 1175.66267,18.452 1173.74,18.452 L1173.74,18.452 L1170.464,18.452 C1169.75467,18.452 1169.246,18.354 1168.938,18.158 C1168.63,17.962 1168.476,17.6586667 1168.476,17.248 C1168.476,16.9493333 1168.57867,16.674 1168.784,16.422 C1168.98933,16.17 1169.25067,15.9693333 1169.568,15.82 C1170.22133,15.9693333 1170.87467,16.044 1171.528,16.044 C1172.424,16.044 1173.24533,15.9366667 1173.992,15.722 C1174.73867,15.5073333 1175.378,15.1946667 1175.91,14.784 C1176.442,14.3733333 1176.85733,13.8646667 1177.156,13.258 C1177.45467,12.6513333 1177.604,11.9653333 1177.604,11.2 C1177.604,10.4346667 1177.46867,9.79066667 1177.198,9.268 C1176.92733,8.74533333 1176.57733,8.29733333 1176.148,7.924 L1176.148,7.924 L1176.148,6.916 L1176.26,6.916 C1176.428,7.14 1176.64267,7.308 1176.904,7.42 C1177.16533,7.532 1177.44533,7.588 1177.744,7.588 C1178.28533,7.588 1178.71467,7.434 1179.032,7.126 C1179.34933,6.818 1179.508,6.42133333 1179.508,5.936 C1179.508,5.39466667 1179.34,4.97933333 1179.004,4.69 C1178.668,4.40066667 1178.248,4.256 1177.744,4.256 C1176.97867,4.256 1176.37667,4.494 1175.938,4.97 C1175.49933,5.446 1175.24267,6.20666667 1175.168,7.252 C1174.664,6.972 1174.11333,6.75733333 1173.516,6.608 C1172.91867,6.45866667 1172.256,6.384 1171.528,6.384 C1170.632,6.384 1169.81533,6.49133333 1169.078,6.706 C1168.34067,6.92066667 1167.706,7.23333333 1167.174,7.644 C1166.642,8.05466667 1166.23133,8.55866667 1165.942,9.156 C1165.65267,9.75333333 1165.508,10.4346667 1165.508,11.2 C1165.508,12.264 1165.76467,13.1506667 1166.278,13.86 C1166.79133,14.5693333 1167.51467,15.1106667 1168.448,15.484 L1168.448,15.484 L1168.448,15.624 C1167.68267,15.792 1167.02933,16.1093333 1166.488,16.576 C1165.94667,17.0426667 1165.676,17.6866667 1165.676,18.508 C1165.676,19.2173333 1165.86267,19.8006667 1166.236,20.258 C1166.60933,20.7153333 1167.11333,21.0186667 1167.748,21.168 L1167.748,21.168 L1167.748,21.28 C1166.908,21.4293333 1166.18,21.7373333 1165.564,22.204 C1164.948,22.6706667 1164.64,23.2586667 1164.64,23.968 C1164.64,24.472 1164.752,24.9293333 1164.976,25.34 C1165.2,25.7506667 1165.578,26.1006667 1166.11,26.39 C1166.642,26.6793333 1167.342,26.8986667 1168.21,27.048 C1169.078,27.1973333 1170.16533,27.272 1171.472,27.272 Z M1171.556,14.336 C1169.95067,14.336 1169.148,13.44 1169.148,11.648 L1169.148,11.648 L1169.148,10.808 C1169.148,9.016 1169.95067,8.12 1171.556,8.12 C1173.16133,8.12 1173.964,9.016 1173.964,10.808 L1173.964,10.808 L1173.964,11.648 C1173.964,13.44 1173.16133,14.336 1171.556,14.336 Z M1172.508,25.592 L1170.856,25.592 C1168.728,25.592 1167.664,24.9573333 1167.664,23.688 C1167.664,23.24 1167.75267,22.862 1167.93,22.554 C1168.10733,22.246 1168.38267,21.98 1168.756,21.756 L1168.756,21.756 L1173.404,21.756 C1174.31867,21.756 1174.99533,21.882 1175.434,22.134 C1175.87267,22.386 1176.092,22.8386667 1176.092,23.492 C1176.092,24.1826667 1175.78867,24.7053333 1175.182,25.06 C1174.57533,25.4146667 1173.684,25.592 1172.508,25.592 L1172.508,25.592 Z" id="Clientbilling" fill="#17202D" fill-rule="nonzero"></path>
            </g>
        </g>
    </g>
</svg>